<svg xmlns="http://www.w3.org/2000/svg" viewBox="0 0 1782.72 1836.89"><defs><style>.cls-1{fill:#f4a508;}.cls-2{fill:#1b2868;}</style></defs><g id="Layer_2" data-name="Layer 2"><g id="Layer_1-2" data-name="Layer 1"><path class="cls-1" d="M266.6,1687a262.88,262.88,0,0,1,49.62,5.26v95h-14.3v-8.62q-17.66,11.77-36.37,11.78-21.87,0-35.11-14.3t-13.25-37.84q.21-23.34,13.46-37.32T266.6,1687Zm1.68,12.41q-17.65,0-27.23,10.72t-9.56,28.6q0,17.65,9.77,28.49T267.44,1778q16.6,0,34.48-11.77v-64.13A220.47,220.47,0,0,0,268.28,1699.39Z"/><path class="cls-1" d="M510.91,1687q18.49,0,29.12,10.62t10.62,29.12v60.55H536.14v-57.18q0-14.08-7.36-22t-20.39-7.88a207.84,207.84,0,0,0-36.17,2.94v84.1H457.71v-95A251,251,0,0,1,510.91,1687Z"/><path class="cls-1" d="M781.71,1638v147.39A276.2,276.2,0,0,1,731,1790q-21.66,0-35-14t-13.35-38q0-23.13,13.35-37.11t36.9-14a125.46,125.46,0,0,1,34.27,4.42V1638Zm-47.3,61.4q-18.3,0-28,10.51t-9.67,28.18q0,18.29,9.78,29.12t27,10.82a195.14,195.14,0,0,0,33.65-2.94V1703.8A118.33,118.33,0,0,0,734.41,1699.39Z"/><path class="cls-1" d="M939.09,1662.38a10.92,10.92,0,0,1-14.93,0,9.8,9.8,0,0,1-3-7.35,10.07,10.07,0,0,1,3-7.57,10.92,10.92,0,0,1,14.93,0,10.07,10.07,0,0,1,3,7.57A9.8,9.8,0,0,1,939.09,1662.38Zm-.11,27.76v97.13h-14.5v-97.13Z"/><path class="cls-1" d="M1096.88,1690.14v104.91q0,22.08-8,31.86t-28.81,10l-1-12.61q13.24.21,18.4-6.2t5.15-21.56V1690.14Zm-14.72-42.58a10.52,10.52,0,0,1,7.57-3,10.31,10.31,0,0,1,7.46,3,10.07,10.07,0,0,1,3,7.57,9.8,9.8,0,0,1-3,7.35,10.31,10.31,0,0,1-7.46,2.95,10.68,10.68,0,0,1-7.57-2.95A9.65,9.65,0,0,1,1079,1655,10,10,0,0,1,1082.16,1647.56Z"/><path class="cls-1" d="M1281.48,1687a262.88,262.88,0,0,1,49.62,5.26v95h-14.3v-8.62q-17.65,11.77-36.37,11.78-21.87,0-35.11-14.3t-13.25-37.84q.21-23.34,13.46-37.32T1281.48,1687Zm1.68,12.41q-17.65,0-27.23,10.72t-9.56,28.6q0,17.65,9.77,28.49t26.18,10.82q16.61,0,34.48-11.77v-64.13A220.47,220.47,0,0,0,1283.16,1699.39Z"/><path class="cls-1" d="M1525.79,1687q18.49,0,29.12,10.62t10.62,29.12v60.55H1551v-57.18q0-14.08-7.36-22t-20.39-7.88a207.84,207.84,0,0,0-36.17,2.94v84.1h-14.51v-95A251,251,0,0,1,1525.79,1687Z"/><rect class="cls-1" x="316.92" width="1148.88" height="1105.17"/><path class="cls-2" d="M482.71,153.2h84.57V952H482.71Z"/><path class="cls-2" d="M751.4,153.2h553.23v86.6H1074.38V952H988.79V239.8H751.4Z"/><polygon class="cls-2" points="0 1302.37 76.82 1302.37 76.82 1532.83 118.4 1532.83 118.4 1302.37 192.91 1302.37 192.91 1260.47 0 1260.47 0 1302.37"/><polygon class="cls-2" points="278.21 1409.86 396.24 1409.86 396.24 1368.61 278.21 1368.61 278.21 1302.37 399.54 1302.37 399.54 1260.47 236.96 1260.47 236.96 1532.83 401.19 1532.83 401.19 1491.25 278.21 1491.25 278.21 1409.86"/><polygon class="cls-2" points="698.16 1260.47 645.69 1260.47 568.07 1365.22 490.13 1260.47 437.64 1260.47 542.18 1396.97 437.59 1532.83 490.46 1532.83 568.09 1428.38 646.03 1532.83 698.51 1532.83 594.29 1396.64 698.16 1260.47"/><polygon class="cls-2" points="898.47 1456.41 763.66 1260.47 728.67 1260.47 728.67 1532.83 768.93 1532.83 768.93 1338.36 904.09 1532.83 939.05 1532.83 939.05 1260.47 898.47 1260.47 898.47 1456.41"/><rect class="cls-2" x="988.02" y="1260.47" width="41.25" height="272.37"/><path class="cls-2" d="M1186.21,1383.77h-30.39l87.7-123.3H1192.8l-77.12,111.62V1260.47h-41.25v272.36h41.25V1425h70.53c12.41,0,17.46,5.15,17.46,17.79v90h41.91v-90C1245.58,1404.19,1225.05,1383.77,1186.21,1383.77Z"/><path class="cls-2" d="M1457.24,1474.13c0,12.16-5.15,17.12-17.79,17.12h-92.31c-12.4,0-17.46-5.15-17.46-17.78v-213h-41.25v213c0,38.83,20.31,59.36,58.71,59.36h92.31c38.84,0,59.37-20.3,59.37-58.7V1260.47h-41.58Z"/><polygon class="cls-2" points="1744.33 1260.47 1663.67 1467.56 1582.7 1260.47 1544.31 1260.47 1544.31 1532.83 1583.91 1532.83 1583.91 1374.72 1646.43 1532.83 1680.94 1532.83 1743.12 1374.6 1743.12 1532.83 1782.72 1532.83 1782.72 1260.47 1744.33 1260.47"/></g></g></svg>