<svg xmlns="http://www.w3.org/2000/svg" viewBox="0 0 1776.82 445"><defs><style>.cls-1{fill:#f4a508;}.cls-2{fill:#1b2868;}</style></defs><g id="Layer_2" data-name="Layer 2"><g id="Layer_1-2" data-name="Layer 1"><rect class="cls-1" width="462.6" height="445"/><path class="cls-1" d="M583.27,340.31A184,184,0,0,1,617.92,344v66.37h-10v-6q-12.35,8.22-25.41,8.22-15.27,0-24.52-10t-9.25-26.43q.15-16.31,9.4-26.06T583.27,340.31Zm1.17,8.67q-12.33,0-19,7.48t-6.68,20q0,12.33,6.82,19.9t18.29,7.56q11.6,0,24.08-8.22V350.88A154.22,154.22,0,0,0,584.44,349Z"/><path class="cls-1" d="M753.89,340.31q12.92,0,20.33,7.42t7.42,20.33v42.29H771.51V370.41q0-9.82-5.14-15.34t-14.25-5.51a144.94,144.94,0,0,0-25.25,2.06v58.73H716.74V344A175.48,175.48,0,0,1,753.89,340.31Z"/><path class="cls-1" d="M943,306.1V409a193.09,193.09,0,0,1-35.39,3.23q-15.12,0-24.45-9.76T873.85,376q0-16.14,9.32-25.91t25.77-9.77a87.8,87.8,0,0,1,23.94,3.08V306.1ZM910,349q-12.78,0-19.53,7.34T883.69,376q0,12.78,6.82,20.34t18.87,7.56a135.28,135.28,0,0,0,23.5-2.06V352.06A82.42,82.42,0,0,0,910,349Z"/><path class="cls-1" d="M1052.91,323.13a7.62,7.62,0,0,1-10.42,0,6.84,6.84,0,0,1-2.13-5.14,7,7,0,0,1,2.13-5.28,7.62,7.62,0,0,1,10.42,0A7,7,0,0,1,1055,318,6.84,6.84,0,0,1,1052.91,323.13Zm-.07,19.38v67.84h-10.13V342.51Z"/><path class="cls-1" d="M1163.11,342.51v73.27q0,15.42-5.58,22.25t-20.12,7l-.73-8.81q9.25.15,12.84-4.33t3.6-15.05v-74.3Zm-10.28-29.73a7.33,7.33,0,0,1,5.28-2.13,7.24,7.24,0,0,1,5.22,2.06,7.05,7.05,0,0,1,2.13,5.28,6.88,6.88,0,0,1-2.13,5.14,7.24,7.24,0,0,1-5.22,2.06,7.48,7.48,0,0,1-5.28-2.06,6.72,6.72,0,0,1-2.2-5.14A7,7,0,0,1,1152.83,312.78Z"/><path class="cls-1" d="M1292,340.31a184,184,0,0,1,34.65,3.67v66.37h-10v-6q-12.35,8.22-25.41,8.22-15.27,0-24.52-10t-9.25-26.43q.15-16.31,9.4-26.06T1292,340.31Zm1.17,8.67q-12.33,0-19,7.48t-6.68,20q0,12.33,6.82,19.9t18.29,7.56q11.6,0,24.08-8.22V350.88A154.22,154.22,0,0,0,1293.2,349Z"/><path class="cls-1" d="M1462.65,340.31q12.91,0,20.33,7.42t7.42,20.33v42.29h-10.14V370.41q0-9.82-5.13-15.34t-14.25-5.51a144.94,144.94,0,0,0-25.25,2.06v58.73H1425.5V344A175.48,175.48,0,0,1,1462.65,340.31Z"/><rect class="cls-2" x="61.91" y="56.84" width="43.75" height="331.32"/><polygon class="cls-2" points="170.1 101.41 265.68 101.41 265.68 388.16 309.84 388.16 309.84 101.41 402.56 101.41 402.56 56.84 170.1 56.84 170.1 101.41"/><polygon class="cls-2" points="531.83 98.54 585.47 98.54 585.47 259.48 614.51 259.48 614.51 98.54 666.55 98.54 666.55 69.27 531.83 69.27 531.83 98.54"/><polygon class="cls-2" points="726.12 173.6 808.55 173.6 808.55 144.79 726.12 144.79 726.12 98.54 810.85 98.54 810.85 69.27 697.31 69.27 697.31 259.48 812 259.48 812 230.44 726.12 230.44 726.12 173.6"/><polygon class="cls-2" points="1019.4 69.27 982.76 69.27 928.55 142.43 874.12 69.27 837.46 69.27 910.47 164.6 837.43 259.48 874.35 259.48 928.56 186.54 983 259.48 1019.65 259.48 946.86 164.37 1019.4 69.27"/><polygon class="cls-2" points="1159.29 206.11 1065.14 69.27 1040.71 69.27 1040.71 259.48 1068.83 259.48 1068.83 123.67 1163.21 259.48 1187.63 259.48 1187.63 69.27 1159.29 69.27 1159.29 206.11"/><rect class="cls-2" x="1221.83" y="69.27" width="28.81" height="190.21"/><path class="cls-2" d="M1360.24,155.38H1339l61.25-86.11h-35.42l-53.86,78V69.27h-28.81V259.48H1311V184.19h49.26c8.66,0,12.19,3.6,12.19,12.42v62.87h29.27V196.61C1401.7,169.64,1387.36,155.38,1360.24,155.38Z"/><path class="cls-2" d="M1549.52,218.49c0,8.49-3.6,12-12.42,12h-64.48c-8.65,0-12.18-3.6-12.18-12.43V69.27h-28.81V218c0,27.13,14.18,41.46,41,41.46h64.48c27.12,0,41.45-14.17,41.45-41V69.27h-29Z"/><polygon class="cls-2" points="1750.01 69.27 1693.68 213.9 1637.13 69.27 1610.33 69.27 1610.33 259.48 1637.98 259.48 1637.98 149.06 1681.64 259.48 1705.74 259.48 1749.16 148.98 1749.16 259.48 1776.82 259.48 1776.82 69.27 1750.01 69.27"/></g></g></svg>