<svg xmlns="http://www.w3.org/2000/svg" viewBox="0 0 316.61 326.23"><defs><style>.cls-1{fill:#f4a508;}.cls-2{fill:#1b2868;}</style></defs><g id="Layer_2" data-name="Layer 2"><g id="Layer_1-2" data-name="Layer 1"><path class="cls-1" d="M47.35,299.61a46.79,46.79,0,0,1,8.81.93v16.88H53.62v-1.53A11.52,11.52,0,0,1,47.16,318a8.08,8.08,0,0,1-6.23-2.54,10.57,10.57,0,0,1,0-13.35A8.41,8.41,0,0,1,47.35,299.61Zm.3,2.2a6.15,6.15,0,0,0-4.84,1.91,7.35,7.35,0,0,0-1.7,5.07,7.23,7.23,0,0,0,1.74,5.06,5.94,5.94,0,0,0,4.65,1.93,11.22,11.22,0,0,0,6.12-2.09V302.3A38.3,38.3,0,0,0,47.65,301.81Z"/><path class="cls-1" d="M90.74,299.61a6.52,6.52,0,0,1,7.06,7.06v10.75H95.22V307.26a5.51,5.51,0,0,0-1.31-3.9,4.72,4.72,0,0,0-3.62-1.4,37.6,37.6,0,0,0-6.42.52v14.94H81.29V300.54A44.66,44.66,0,0,1,90.74,299.61Z"/><path class="cls-1" d="M138.83,290.91v26.17a48.84,48.84,0,0,1-9,.83,8.18,8.18,0,0,1-6.21-2.49,9.3,9.3,0,0,1-2.37-6.74,9.11,9.11,0,0,1,2.37-6.59,8.64,8.64,0,0,1,6.55-2.48,22.45,22.45,0,0,1,6.09.78v-9.48Zm-8.4,10.9a6.42,6.42,0,0,0-5,1.87,7.11,7.11,0,0,0-1.71,5,7.44,7.44,0,0,0,1.73,5.17,6.12,6.12,0,0,0,4.8,1.93,34.61,34.61,0,0,0,6-.53V302.6A20.74,20.74,0,0,0,130.43,301.81Z"/><path class="cls-1" d="M166.78,295.24a1.95,1.95,0,0,1-2.65,0,1.74,1.74,0,0,1-.54-1.31,1.79,1.79,0,0,1,.54-1.34,1.95,1.95,0,0,1,2.65,0,1.79,1.79,0,0,1,.54,1.34A1.74,1.74,0,0,1,166.78,295.24Zm0,4.93v17.25h-2.57V300.17Z"/><path class="cls-1" d="M194.81,300.17V318.8c0,2.62-.48,4.5-1.42,5.66s-2.65,1.75-5.12,1.77l-.19-2.24a3.89,3.89,0,0,0,3.27-1.1,6.18,6.18,0,0,0,.92-3.83V300.17Zm-2.62-7.56a1.86,1.86,0,0,1,1.35-.54,1.82,1.82,0,0,1,1.32.52,1.79,1.79,0,0,1,.54,1.34,1.74,1.74,0,0,1-.54,1.31,1.82,1.82,0,0,1-1.32.52,1.89,1.89,0,0,1-1.35-.52,1.72,1.72,0,0,1-.56-1.31A1.78,1.78,0,0,1,192.19,292.61Z"/><path class="cls-1" d="M227.59,299.61a46.79,46.79,0,0,1,8.81.93v16.88h-2.54v-1.53A11.52,11.52,0,0,1,227.4,318a8.09,8.09,0,0,1-6.23-2.54,9.48,9.48,0,0,1-2.35-6.72,9.36,9.36,0,0,1,2.39-6.63A8.37,8.37,0,0,1,227.59,299.61Zm.3,2.2a6.17,6.17,0,0,0-4.84,1.91,7.35,7.35,0,0,0-1.7,5.07,7.23,7.23,0,0,0,1.74,5.06,5.94,5.94,0,0,0,4.65,1.93,11.17,11.17,0,0,0,6.12-2.09V302.3A38.3,38.3,0,0,0,227.89,301.81Z"/><path class="cls-1" d="M271,299.61a6.52,6.52,0,0,1,7.06,7.06v10.75h-2.58V307.26a5.46,5.46,0,0,0-1.31-3.9,4.71,4.71,0,0,0-3.62-1.4,37.77,37.77,0,0,0-6.42.52v14.94h-2.58V300.54A44.72,44.72,0,0,1,271,299.61Z"/><rect class="cls-1" x="56.29" width="204.04" height="196.28"/><path class="cls-2" d="M85.73,27.21h15V169.07h-15Z"/><path class="cls-2" d="M133.45,27.21H231.7V42.59H190.81V169.07h-15.2V42.59H133.45Z"/><polygon class="cls-1" points="0 231.3 13.64 231.3 13.64 272.23 21.03 272.23 21.03 231.3 34.26 231.3 34.26 223.86 0 223.86 0 231.3"/><polygon class="cls-1" points="49.41 250.39 70.37 250.39 70.37 243.06 49.41 243.06 49.41 231.3 70.96 231.3 70.96 223.86 42.09 223.86 42.09 272.23 71.25 272.23 71.25 264.85 49.41 264.85 49.41 250.39"/><polygon class="cls-1" points="123.99 223.86 114.67 223.86 100.89 242.46 87.05 223.86 77.72 223.86 96.29 248.1 77.72 272.23 87.11 272.23 100.89 253.68 114.73 272.23 124.06 272.23 105.55 248.04 123.99 223.86"/><polygon class="cls-1" points="159.57 258.66 135.63 223.86 129.41 223.86 129.41 272.23 136.56 272.23 136.56 237.69 160.57 272.23 166.78 272.23 166.78 223.86 159.57 223.86 159.57 258.66"/><rect class="cls-1" x="175.47" y="223.86" width="7.33" height="48.37"/><path class="cls-1" d="M210.67,245.76h-5.4l15.58-21.9h-9l-13.7,19.82V223.86h-7.32v48.37h7.32V253.08h12.53c2.2,0,3.1.92,3.1,3.16v16h7.44v-16C221.21,249.38,217.57,245.76,210.67,245.76Z"/><path class="cls-1" d="M258.81,261.81c0,2.16-.92,3-3.16,3h-16.4c-2.2,0-3.1-.92-3.1-3.16V223.86h-7.32v37.83c0,6.9,3.6,10.54,10.42,10.54h16.4c6.89,0,10.54-3.6,10.54-10.42V223.86h-7.38Z"/><polygon class="cls-1" points="309.79 223.86 295.47 260.64 281.09 223.86 274.27 223.86 274.27 272.23 281.3 272.23 281.3 244.15 292.41 272.23 298.54 272.23 309.58 244.13 309.58 272.23 316.61 272.23 316.61 223.86 309.79 223.86"/></g></g></svg>