<svg xmlns="http://www.w3.org/2000/svg" viewBox="0 0 452.63 113.17"><defs><style>.cls-1,.cls-3{fill:#f4a508;}.cls-2{fill:#1b2868;}.cls-3{stroke:#f4a508;stroke-miterlimit:10;stroke-width:4px;}</style></defs><g id="Layer_2" data-name="Layer 2"><g id="Layer_1-2" data-name="Layer 1"><rect class="cls-1" width="117.64" height="113.17"/><path class="cls-1" d="M148.33,86.54a46.86,46.86,0,0,1,8.81.94v16.88H154.6v-1.54a11.46,11.46,0,0,1-6.46,2.1,8.08,8.08,0,0,1-6.23-2.54,9.52,9.52,0,0,1-2.36-6.73A9.41,9.41,0,0,1,141.94,89,8.38,8.38,0,0,1,148.33,86.54Zm.3,2.21a6.15,6.15,0,0,0-4.84,1.9,7.36,7.36,0,0,0-1.7,5.08,7.25,7.25,0,0,0,1.74,5.06,6,6,0,0,0,4.65,1.92,11.11,11.11,0,0,0,6.12-2.09V89.23A39.5,39.5,0,0,0,148.63,88.75Z"/><path class="cls-1" d="M191.72,86.54a6.53,6.53,0,0,1,7.06,7.06v10.76H196.2V94.2a5.49,5.49,0,0,0-1.31-3.9,4.69,4.69,0,0,0-3.62-1.4,36.69,36.69,0,0,0-6.42.52v14.94h-2.58V87.48A44.63,44.63,0,0,1,191.72,86.54Z"/><path class="cls-1" d="M239.81,77.84V104a48.68,48.68,0,0,1-9,.82,8.21,8.21,0,0,1-6.21-2.48,9.36,9.36,0,0,1-2.37-6.74A9.14,9.14,0,0,1,224.6,89a8.61,8.61,0,0,1,6.55-2.49,22.39,22.39,0,0,1,6.09.79V77.84Zm-8.4,10.91a6.41,6.41,0,0,0-5,1.86,7.11,7.11,0,0,0-1.72,5,7.46,7.46,0,0,0,1.73,5.17,6.15,6.15,0,0,0,4.8,1.92,34.51,34.51,0,0,0,6-.52V89.53A21.12,21.12,0,0,0,231.41,88.75Z"/><path class="cls-1" d="M267.76,82.17a1.92,1.92,0,0,1-2.65,0,1.72,1.72,0,0,1-.54-1.3,1.8,1.8,0,0,1,.54-1.35,1.95,1.95,0,0,1,2.65,0,1.81,1.81,0,0,1,.55,1.35A1.73,1.73,0,0,1,267.76,82.17Zm0,4.93v17.26h-2.57V87.1Z"/><path class="cls-1" d="M295.79,87.1v18.64c0,2.61-.48,4.5-1.42,5.65s-2.65,1.75-5.12,1.78l-.19-2.24a4,4,0,0,0,3.27-1.1,6.2,6.2,0,0,0,.92-3.83V87.1Zm-2.62-7.56a1.88,1.88,0,0,1,1.35-.54,1.86,1.86,0,0,1,1.32.52,1.8,1.8,0,0,1,.54,1.35,1.72,1.72,0,0,1-.54,1.3,1.83,1.83,0,0,1-1.32.53,1.91,1.91,0,0,1-1.35-.53,1.7,1.7,0,0,1-.56-1.3A1.78,1.78,0,0,1,293.17,79.54Z"/><path class="cls-1" d="M328.57,86.54a46.78,46.78,0,0,1,8.81.94v16.88h-2.53v-1.54a11.51,11.51,0,0,1-6.46,2.1,8.12,8.12,0,0,1-6.24-2.54,9.52,9.52,0,0,1-2.35-6.73A9.32,9.32,0,0,1,322.19,89,8.34,8.34,0,0,1,328.57,86.54Zm.3,2.21a6.16,6.16,0,0,0-4.84,1.9,8.37,8.37,0,0,0,0,10.14,6,6,0,0,0,4.65,1.92,11.14,11.14,0,0,0,6.13-2.09V89.23A39.72,39.72,0,0,0,328.87,88.75Z"/><path class="cls-1" d="M372,86.54A6.53,6.53,0,0,1,379,93.6v10.76h-2.58V94.2a5.49,5.49,0,0,0-1.3-3.9,4.71,4.71,0,0,0-3.63-1.4,36.77,36.77,0,0,0-6.42.52v14.94h-2.58V87.48A44.77,44.77,0,0,1,372,86.54Z"/><path class="cls-2" d="M17,15.69h8.66V97.48H17Z"/><path class="cls-2" d="M26.87,98.71H15.74V14.45H26.87Zm-8.66-2.46H24.4V16.92H18.21Z"/><path class="cls-2" d="M44.49,15.69h56.65v8.87H77.56V97.48H68.8V24.56H44.49Z"/><path class="cls-2" d="M78.79,98.71H67.57V25.79H43.26V14.45h59.11V25.79H78.79ZM70,96.25h6.3V23.32H99.91v-6.4H45.72v6.4H70Z"/><path class="cls-3" d="M136.48,18.85h31.79v5H155V64.76h-4.92V23.83H136.48Z"/><path class="cls-3" d="M178.56,18.85H205v5H183.43V38.05h21v4.87h-21V59.84h21.84v4.92H178.56Z"/><path class="cls-3" d="M236.14,38.29l14.4-19.44h6.21L239.24,41.8l17.57,23H250.6L236.14,45.37,221.73,64.76h-6.26l17.62-22.9-17.62-23h6.21Z"/><path class="cls-3" d="M270.58,27.52V64.76h-4.69V18.85h4.34l25.82,37.53V18.85h4.74V64.76h-4.33Z"/><path class="cls-3" d="M312,18.85h4.86V64.76H312Z"/><path class="cls-3" d="M332.16,41.39l15.57-22.54h6l-15.58,21.9h7.79q9.31,0,9.31,9.25V64.76h-5V50q0-4.39-4.33-4.39H332.16V64.76H327.3V18.85h4.86Z"/><path class="cls-3" d="M395.29,18.85h4.91V55.56q0,9.19-9.31,9.2H374.5q-9.19,0-9.19-9.31V18.85h4.86v36.6c0,2.92,1.44,4.39,4.33,4.39h16.39q4.39,0,4.4-4.28Z"/><path class="cls-3" d="M410.75,18.85h4.74l15.23,38.94,15.16-38.94h4.75V64.76h-4.57V31.38L432.94,64.76h-4.45L415.32,31.44V64.76h-4.57Z"/></g></g></svg>